<mxfile host="app.diagrams.net" modified="2024-04-13T12:35:32.123Z" agent="Mozilla/5.0 (Windows NT 10.0; Win64; x64; rv:124.0) Gecko/20100101 Firefox/124.0" etag="OCO_GfAUy6lmIzzvsDWm" version="24.2.5" type="device">
  <diagram name="Page-1" id="OfEeHFLst2fE1EtqxpQj">
    <mxGraphModel dx="2037" dy="786" grid="1" gridSize="10" guides="1" tooltips="1" connect="1" arrows="1" fold="1" page="1" pageScale="1" pageWidth="827" pageHeight="1169" math="0" shadow="0">
      <root>
        <mxCell id="0" />
        <mxCell id="1" parent="0" />
        <mxCell id="hvKdp9juRDDyQ0q8-uek-32" style="edgeStyle=none;curved=1;rounded=0;orthogonalLoop=1;jettySize=auto;html=1;entryX=0.95;entryY=0.05;entryDx=0;entryDy=0;entryPerimeter=0;fontSize=12;startSize=8;endSize=8;exitX=0;exitY=0.8;exitDx=0;exitDy=0;exitPerimeter=0;" edge="1" parent="1" source="hvKdp9juRDDyQ0q8-uek-9" target="hvKdp9juRDDyQ0q8-uek-20">
          <mxGeometry relative="1" as="geometry" />
        </mxCell>
        <mxCell id="hvKdp9juRDDyQ0q8-uek-33" value="&lt;b&gt;&lt;font style=&quot;font-size: 14px;&quot;&gt;3v&lt;/font&gt; (2x via gpio)&lt;br&gt;&lt;/b&gt;" style="edgeLabel;html=1;align=center;verticalAlign=middle;resizable=0;points=[];fontSize=12;rotation=0;" vertex="1" connectable="0" parent="hvKdp9juRDDyQ0q8-uek-32">
          <mxGeometry x="0.0388" y="2" relative="1" as="geometry">
            <mxPoint as="offset" />
          </mxGeometry>
        </mxCell>
        <mxCell id="hvKdp9juRDDyQ0q8-uek-29" style="edgeStyle=none;curved=1;rounded=0;orthogonalLoop=1;jettySize=auto;html=1;fontSize=12;startSize=8;endSize=8;exitX=1;exitY=0;exitDx=0;exitDy=0;" edge="1" parent="1" source="hvKdp9juRDDyQ0q8-uek-53" target="hvKdp9juRDDyQ0q8-uek-21">
          <mxGeometry relative="1" as="geometry" />
        </mxCell>
        <mxCell id="hvKdp9juRDDyQ0q8-uek-30" value="&lt;b&gt;&lt;font style=&quot;font-size: 14px;&quot;&gt;12v&lt;/font&gt;&lt;/b&gt;" style="edgeLabel;html=1;align=center;verticalAlign=middle;resizable=0;points=[];fontSize=12;" vertex="1" connectable="0" parent="hvKdp9juRDDyQ0q8-uek-29">
          <mxGeometry x="0.0084" y="3" relative="1" as="geometry">
            <mxPoint x="1" as="offset" />
          </mxGeometry>
        </mxCell>
        <mxCell id="hvKdp9juRDDyQ0q8-uek-9" value="&lt;font style=&quot;font-size: 14px;&quot;&gt;&lt;b&gt;ESP32 S3&lt;/b&gt;&lt;br&gt;&lt;/font&gt;" style="outlineConnect=0;dashed=0;verticalLabelPosition=bottom;verticalAlign=top;align=center;html=1;shape=mxgraph.aws3.hardware_board;fillColor=#5294CF;gradientColor=none;" vertex="1" parent="1">
          <mxGeometry x="347" y="290.25" width="133.73" height="160" as="geometry" />
        </mxCell>
        <mxCell id="hvKdp9juRDDyQ0q8-uek-23" value="" style="edgeStyle=none;curved=1;rounded=0;orthogonalLoop=1;jettySize=auto;html=1;fontSize=12;startSize=8;endSize=8;" edge="1" parent="1" source="hvKdp9juRDDyQ0q8-uek-11" target="hvKdp9juRDDyQ0q8-uek-9">
          <mxGeometry relative="1" as="geometry" />
        </mxCell>
        <mxCell id="hvKdp9juRDDyQ0q8-uek-36" value="&lt;b&gt;&lt;font style=&quot;font-size: 14px;&quot;&gt;flat-cable&lt;/font&gt;&lt;/b&gt;" style="edgeLabel;html=1;align=center;verticalAlign=middle;resizable=0;points=[];fontSize=12;" vertex="1" connectable="0" parent="hvKdp9juRDDyQ0q8-uek-23">
          <mxGeometry x="0.0033" y="2" relative="1" as="geometry">
            <mxPoint x="1" y="-12" as="offset" />
          </mxGeometry>
        </mxCell>
        <mxCell id="hvKdp9juRDDyQ0q8-uek-11" value="&lt;div style=&quot;font-size: 14px;&quot;&gt;&lt;font style=&quot;font-size: 14px;&quot;&gt;&lt;b&gt;OV2640&amp;nbsp;&lt;/b&gt;&lt;/font&gt;&lt;/div&gt;&lt;div style=&quot;font-size: 14px;&quot;&gt;&lt;font style=&quot;font-size: 14px;&quot;&gt;&lt;b&gt;Fish-Eye Cam&lt;/b&gt;&lt;/font&gt;&lt;/div&gt;" style="outlineConnect=0;dashed=0;verticalLabelPosition=bottom;verticalAlign=top;align=center;html=1;shape=mxgraph.aws3.door_lock;fillColor=#5294CF;gradientColor=none;" vertex="1" parent="1">
          <mxGeometry x="570" y="330.5" width="79.5" height="79.5" as="geometry" />
        </mxCell>
        <mxCell id="hvKdp9juRDDyQ0q8-uek-22" value="" style="edgeStyle=none;curved=1;rounded=0;orthogonalLoop=1;jettySize=auto;html=1;fontSize=12;startSize=8;endSize=8;" edge="1" parent="1" source="hvKdp9juRDDyQ0q8-uek-12" target="hvKdp9juRDDyQ0q8-uek-14">
          <mxGeometry relative="1" as="geometry" />
        </mxCell>
        <mxCell id="hvKdp9juRDDyQ0q8-uek-12" value="&lt;b&gt;&lt;font style=&quot;font-size: 15px;&quot;&gt;DFPlayer&lt;/font&gt;&lt;/b&gt;" style="outlineConnect=0;dashed=0;verticalLabelPosition=bottom;verticalAlign=top;align=center;html=1;shape=mxgraph.aws3.generic;fillColor=#5294CF;gradientColor=none;" vertex="1" parent="1">
          <mxGeometry x="483" y="505.25" width="79.5" height="79.5" as="geometry" />
        </mxCell>
        <mxCell id="hvKdp9juRDDyQ0q8-uek-14" value="&lt;b&gt;&lt;font style=&quot;font-size: 14px;&quot;&gt;Speaker&lt;/font&gt;&lt;/b&gt;" style="html=1;verticalLabelPosition=bottom;align=center;labelBackgroundColor=#ffffff;verticalAlign=top;strokeWidth=2;strokeColor=#0080F0;shadow=0;dashed=0;shape=mxgraph.ios7.icons.volume_2;pointerEvents=1" vertex="1" parent="1">
          <mxGeometry x="633" y="508.75" width="75.21" height="70" as="geometry" />
        </mxCell>
        <mxCell id="hvKdp9juRDDyQ0q8-uek-20" value="&lt;div style=&quot;font-size: 14px;&quot;&gt;&lt;font style=&quot;font-size: 14px;&quot;&gt;&lt;b&gt;LED Push &lt;br&gt;&lt;/b&gt;&lt;/font&gt;&lt;/div&gt;&lt;div style=&quot;font-size: 14px;&quot;&gt;&lt;font style=&quot;font-size: 14px;&quot;&gt;&lt;b&gt;&lt;font style=&quot;font-size: 14px;&quot;&gt;Button (5~3v)&lt;/font&gt;&lt;br&gt;&lt;/b&gt;&lt;/font&gt;&lt;/div&gt;" style="outlineConnect=0;dashed=0;verticalLabelPosition=bottom;verticalAlign=top;align=center;html=1;shape=mxgraph.aws3.alexa_skill;fillColor=#5294CF;gradientColor=none;" vertex="1" parent="1">
          <mxGeometry x="118" y="512.25" width="60" height="63" as="geometry" />
        </mxCell>
        <mxCell id="hvKdp9juRDDyQ0q8-uek-21" value="&lt;div&gt;&lt;b style=&quot;font-size: 14px;&quot;&gt;IR LED&amp;nbsp;&lt;/b&gt;&lt;/div&gt;&lt;div&gt;&lt;b style=&quot;font-size: 14px;&quot;&gt;Ring (12v)&lt;br&gt;&lt;/b&gt;&lt;/div&gt;" style="image;aspect=fixed;html=1;points=[];align=center;fontSize=12;image=img/lib/azure2/ai_machine_learning/Custom_Vision.svg;" vertex="1" parent="1">
          <mxGeometry x="380" y="140" width="68" height="68" as="geometry" />
        </mxCell>
        <mxCell id="hvKdp9juRDDyQ0q8-uek-25" value="" style="edgeStyle=none;curved=1;rounded=0;orthogonalLoop=1;jettySize=auto;html=1;fontSize=12;startSize=8;endSize=8;entryX=0.5;entryY=0;entryDx=0;entryDy=0;" edge="1" parent="1" source="hvKdp9juRDDyQ0q8-uek-24" target="hvKdp9juRDDyQ0q8-uek-53">
          <mxGeometry relative="1" as="geometry" />
        </mxCell>
        <mxCell id="hvKdp9juRDDyQ0q8-uek-24" value="&lt;b style=&quot;font-size: 14px;&quot;&gt;12v power&lt;br&gt;&lt;/b&gt;" style="image;aspect=fixed;html=1;points=[];align=center;fontSize=12;image=img/lib/azure2/general/Power.svg;" vertex="1" parent="1">
          <mxGeometry x="123" y="140" width="44" height="68" as="geometry" />
        </mxCell>
        <mxCell id="hvKdp9juRDDyQ0q8-uek-34" style="edgeStyle=none;curved=1;rounded=0;orthogonalLoop=1;jettySize=auto;html=1;entryX=0;entryY=0.5;entryDx=0;entryDy=0;entryPerimeter=0;fontSize=12;startSize=8;endSize=8;exitX=1;exitY=0.5;exitDx=0;exitDy=0;" edge="1" parent="1" source="hvKdp9juRDDyQ0q8-uek-53" target="hvKdp9juRDDyQ0q8-uek-9">
          <mxGeometry relative="1" as="geometry" />
        </mxCell>
        <mxCell id="hvKdp9juRDDyQ0q8-uek-35" value="&lt;b&gt;&lt;font style=&quot;font-size: 14px;&quot;&gt;5v&lt;/font&gt;&lt;/b&gt;" style="edgeLabel;html=1;align=center;verticalAlign=middle;resizable=0;points=[];fontSize=12;" vertex="1" connectable="0" parent="hvKdp9juRDDyQ0q8-uek-34">
          <mxGeometry x="-0.1067" y="2" relative="1" as="geometry">
            <mxPoint as="offset" />
          </mxGeometry>
        </mxCell>
        <mxCell id="hvKdp9juRDDyQ0q8-uek-37" style="edgeStyle=none;curved=1;rounded=0;orthogonalLoop=1;jettySize=auto;html=1;entryX=0.5;entryY=0;entryDx=0;entryDy=0;entryPerimeter=0;fontSize=12;startSize=8;endSize=8;exitX=1;exitY=0.8;exitDx=0;exitDy=0;exitPerimeter=0;" edge="1" parent="1" source="hvKdp9juRDDyQ0q8-uek-9" target="hvKdp9juRDDyQ0q8-uek-12">
          <mxGeometry relative="1" as="geometry" />
        </mxCell>
        <mxCell id="hvKdp9juRDDyQ0q8-uek-41" value="&lt;b&gt;&lt;font style=&quot;font-size: 14px;&quot;&gt;5v&lt;/font&gt;&lt;/b&gt;" style="edgeLabel;html=1;align=center;verticalAlign=middle;resizable=0;points=[];fontSize=12;" vertex="1" connectable="0" parent="hvKdp9juRDDyQ0q8-uek-37">
          <mxGeometry x="0.0506" relative="1" as="geometry">
            <mxPoint as="offset" />
          </mxGeometry>
        </mxCell>
        <mxCell id="hvKdp9juRDDyQ0q8-uek-48" value="" style="edgeStyle=none;curved=1;rounded=0;orthogonalLoop=1;jettySize=auto;html=1;fontSize=12;startSize=8;endSize=8;" edge="1" parent="1" source="hvKdp9juRDDyQ0q8-uek-46" target="hvKdp9juRDDyQ0q8-uek-20">
          <mxGeometry relative="1" as="geometry" />
        </mxCell>
        <mxCell id="hvKdp9juRDDyQ0q8-uek-46" value="&lt;div align=&quot;left&quot;&gt;&lt;b&gt;&lt;br&gt;&lt;/b&gt;&lt;/div&gt;&lt;div align=&quot;left&quot;&gt;&lt;b&gt;&lt;br&gt;&lt;/b&gt;&lt;/div&gt;&lt;div align=&quot;left&quot;&gt;&lt;b&gt;&amp;nbsp; LED -&amp;gt; GPIO21 (3v)&lt;br&gt;&lt;/b&gt;&lt;/div&gt;&lt;div align=&quot;left&quot;&gt;&lt;b&gt;&lt;br&gt;&lt;/b&gt;&lt;/div&gt;&lt;div align=&quot;left&quot;&gt;&lt;b&gt;&amp;nbsp; Button -&amp;gt; GPIO14&lt;br&gt;&lt;/b&gt;&lt;/div&gt;&lt;div align=&quot;left&quot;&gt;&lt;b&gt;&lt;br&gt;&lt;/b&gt;&lt;/div&gt;&lt;div align=&quot;left&quot;&gt;&lt;br&gt;&lt;/div&gt;" style="rounded=1;whiteSpace=wrap;html=1;align=left;" vertex="1" parent="1">
          <mxGeometry x="250" y="518.75" width="147" height="50" as="geometry" />
        </mxCell>
        <mxCell id="hvKdp9juRDDyQ0q8-uek-50" value="" style="edgeStyle=none;curved=1;rounded=0;orthogonalLoop=1;jettySize=auto;html=1;fontSize=12;startSize=8;endSize=8;entryX=0.16;entryY=0.87;entryDx=0;entryDy=0;entryPerimeter=0;" edge="1" parent="1" source="hvKdp9juRDDyQ0q8-uek-49" target="hvKdp9juRDDyQ0q8-uek-12">
          <mxGeometry relative="1" as="geometry">
            <mxPoint x="493" y="589.25" as="targetPoint" />
          </mxGeometry>
        </mxCell>
        <mxCell id="hvKdp9juRDDyQ0q8-uek-49" value="&lt;div style=&quot;font-size: 14px;&quot; align=&quot;left&quot;&gt;&lt;font style=&quot;font-size: 14px;&quot;&gt;&lt;b&gt;&amp;nbsp; uart:&lt;/b&gt;&lt;br&gt;&lt;b&gt;&amp;nbsp;&amp;nbsp;&amp;nbsp; id: my_uart&lt;/b&gt;&lt;br&gt;&lt;b&gt;&amp;nbsp;&amp;nbsp;&amp;nbsp; tx_pin: GPIO43&lt;/b&gt;&lt;br&gt;&lt;b&gt;&amp;nbsp;&amp;nbsp;&amp;nbsp; rx_pin: GPIO44&lt;/b&gt;&lt;br&gt;&lt;b&gt;&amp;nbsp;&amp;nbsp;&amp;nbsp; baud_rate: 9600&lt;/b&gt;&lt;/font&gt;&lt;/div&gt;" style="rounded=1;whiteSpace=wrap;html=1;align=left;" vertex="1" parent="1">
          <mxGeometry x="248.5" y="584.75" width="150" height="90" as="geometry" />
        </mxCell>
        <mxCell id="hvKdp9juRDDyQ0q8-uek-51" value="&lt;div&gt;&lt;b&gt;Http:&lt;/b&gt;&lt;/div&gt;&lt;div&gt;&lt;b&gt;stream port 80&lt;/b&gt;&lt;/div&gt;&lt;div&gt;&lt;b&gt;snapshot port 81&lt;br&gt;&lt;/b&gt;&lt;/div&gt;" style="ellipse;shape=cloud;whiteSpace=wrap;html=1;align=center;" vertex="1" parent="1">
          <mxGeometry x="534.75" y="124" width="150" height="100" as="geometry" />
        </mxCell>
        <mxCell id="hvKdp9juRDDyQ0q8-uek-52" style="edgeStyle=none;curved=1;rounded=0;orthogonalLoop=1;jettySize=auto;html=1;entryX=0.55;entryY=0.95;entryDx=0;entryDy=0;entryPerimeter=0;fontSize=12;startSize=8;endSize=8;exitX=1;exitY=0.2;exitDx=0;exitDy=0;exitPerimeter=0;" edge="1" parent="1" source="hvKdp9juRDDyQ0q8-uek-9" target="hvKdp9juRDDyQ0q8-uek-51">
          <mxGeometry relative="1" as="geometry" />
        </mxCell>
        <mxCell id="hvKdp9juRDDyQ0q8-uek-53" value="&lt;div style=&quot;font-size: 14px;&quot;&gt;&lt;font style=&quot;font-size: 14px;&quot;&gt;&lt;b&gt;12-&amp;gt;5v&lt;/b&gt;&lt;/font&gt;&lt;/div&gt;&lt;div style=&quot;font-size: 14px;&quot;&gt;&lt;font style=&quot;font-size: 14px;&quot;&gt;&lt;b&gt;&lt;font style=&quot;font-size: 14px;&quot;&gt;Converter&lt;/font&gt;&lt;br&gt;&lt;/b&gt;&lt;/font&gt;&lt;/div&gt;" style="editableCssRules=.*;html=1;shape=image;verticalLabelPosition=bottom;labelBackgroundColor=#ffffff;verticalAlign=top;aspect=fixed;imageAspect=0;image=data:image/svg+xml,PHN2ZyB4bWxucz0iaHR0cDovL3d3dy53My5vcmcvMjAwMC9zdmciIHhtbG5zOnY9Imh0dHBzOi8vdmVjdGEuaW8vbmFubyIgd2lkdGg9IjIwIiBoZWlnaHQ9IjIwIiB2aWV3Qm94PSIwIDAgMjAgMjAiPiYjeGE7CTxzdHlsZSB0eXBlPSJ0ZXh0L2NzcyI+JiN4YTsJLnN0MHtmaWxsOiM0Mjg1ZjQ7fSYjeGE7CTwvc3R5bGU+JiN4YTsJPHBhdGggY2xhc3M9InN0MCIgZD0iTTEzLjMzIDB2Mi4zOGgtMi4xNlYwSDguODN2Mi4zOEg2LjY3VjBINC4yOXYyLjM4YTIgMiAwIDAgMC0xLjkxIDEuOTFIMHYyLjM4aDIuMzh2Mi4xNEgwdjIuMzhoMi4zOHYyLjE0SDB2Mi4zOGgyLjM4YTIgMiAwIDAgMCAxLjkxIDEuOTFWMjBoMi4zOHYtMi4zOGgyLjE2VjIwaDIuMzR2LTIuMzhoMi4xNlYyMGgyLjM4di0yLjM4YTIgMiAwIDAgMCAxLjkxLTEuOTFIMjB2LTIuMzhoLTIuMzh2LTIuMTRIMjBWOC44MWgtMi4zOFY2LjY3SDIwVjQuMjloLTIuMzhhMiAyIDAgMCAwLTEuOTEtMS45MVYwem0xLjUzIDE1LjI0SDUuMTRhLjM4LjM4IDAgMCAxLS4zOC0uMzhWNS4xNGEuMzguMzggMCAwIDEgLjM4LS4zOGg5LjcyYS4zOC4zOCAwIDAgMSAuMzguMzh2OS43MmEuMzguMzggMCAwIDEtLjM4LjM4em0tMi4wNy02LjEybC0zLjUgNC44NnYtMy42M0g3LjIybDMuNjEtNC44MXYzLjU4eiIvPiYjeGE7PC9zdmc+;" vertex="1" parent="1">
          <mxGeometry x="95" y="320.25" width="100" height="100" as="geometry" />
        </mxCell>
        <mxCell id="hvKdp9juRDDyQ0q8-uek-54" value="&lt;div&gt;&lt;b&gt;SD Card \&lt;/b&gt;&lt;/div&gt;&lt;div&gt;&lt;b&gt;with chime.mp3&lt;br&gt;&lt;/b&gt;&lt;/div&gt;" style="pointerEvents=1;shadow=0;dashed=0;html=1;strokeColor=none;fillColor=#4495D1;labelPosition=center;verticalLabelPosition=bottom;verticalAlign=top;align=center;outlineConnect=0;shape=mxgraph.veeam.sd_card;" vertex="1" parent="1">
          <mxGeometry x="590.6" y="604.36" width="42.4" height="50.78" as="geometry" />
        </mxCell>
        <mxCell id="hvKdp9juRDDyQ0q8-uek-55" style="edgeStyle=none;curved=1;rounded=0;orthogonalLoop=1;jettySize=auto;html=1;entryX=0.84;entryY=0.87;entryDx=0;entryDy=0;entryPerimeter=0;fontSize=12;startSize=8;endSize=8;" edge="1" parent="1" source="hvKdp9juRDDyQ0q8-uek-54" target="hvKdp9juRDDyQ0q8-uek-12">
          <mxGeometry relative="1" as="geometry" />
        </mxCell>
      </root>
    </mxGraphModel>
  </diagram>
</mxfile>
